<?xml version="1.0" encoding="UTF-8" standalone="no"?>
<!-- Created with Inkscape (http://www.inkscape.org/) -->

<svg
   version="1.1"
   id="svg1"
   width="302.36133"
   height="188.976"
   viewBox="0 0 302.36133 188.976"
   xmlns="http://www.w3.org/2000/svg"
   xmlns:svg="http://www.w3.org/2000/svg">
  <defs
     id="defs1">
    <clipPath
       clipPathUnits="userSpaceOnUse"
       id="clipPath3">
      <path
         d="M 0,141.732 H 226.772 V 0 H 0 Z"
         transform="translate(-125.4438,-95.023703)"
         id="path3" />
    </clipPath>
    <clipPath
       clipPathUnits="userSpaceOnUse"
       id="clipPath5">
      <path
         d="M 0,141.732 H 226.772 V 0 H 0 Z"
         transform="translate(-136.3881,-101.0005)"
         id="path5" />
    </clipPath>
    <clipPath
       clipPathUnits="userSpaceOnUse"
       id="clipPath7">
      <path
         d="M 0,141.732 H 226.772 V 0 H 0 Z"
         transform="translate(-145.8817,-101.2955)"
         id="path7" />
    </clipPath>
    <clipPath
       clipPathUnits="userSpaceOnUse"
       id="clipPath9">
      <path
         d="M 0,141.732 H 226.772 V 0 H 0 Z"
         transform="translate(-156.3597,-89.612902)"
         id="path9" />
    </clipPath>
    <clipPath
       clipPathUnits="userSpaceOnUse"
       id="clipPath11">
      <path
         d="M 0,141.732 H 226.772 V 0 H 0 Z"
         transform="translate(-126.2778,-71.163002)"
         id="path11" />
    </clipPath>
    <clipPath
       clipPathUnits="userSpaceOnUse"
       id="clipPath13">
      <path
         d="M 0,141.732 H 226.772 V 0 H 0 Z"
         transform="translate(-136.0174,-79.918802)"
         id="path13" />
    </clipPath>
    <clipPath
       clipPathUnits="userSpaceOnUse"
       id="clipPath15">
      <path
         d="M 0,141.732 H 226.772 V 0 H 0 Z"
         id="path15" />
    </clipPath>
    <clipPath
       clipPathUnits="userSpaceOnUse"
       id="clipPath17">
      <path
         d="M 0,141.732 H 226.772 V 0 H 0 Z"
         transform="translate(-151.02,-71.138002)"
         id="path17" />
    </clipPath>
    <clipPath
       clipPathUnits="userSpaceOnUse"
       id="clipPath19">
      <path
         d="M 0,141.732 H 226.772 V 0 H 0 Z"
         transform="translate(-165.48171,-80.213802)"
         id="path19" />
    </clipPath>
    <clipPath
       clipPathUnits="userSpaceOnUse"
       id="clipPath21">
      <path
         d="M 0,141.732 H 226.772 V 0 H 0 Z"
         transform="translate(-130.6588,-50.629801)"
         id="path21" />
    </clipPath>
    <clipPath
       clipPathUnits="userSpaceOnUse"
       id="clipPath23">
      <path
         d="M 0,141.732 H 226.772 V 0 H 0 Z"
         transform="translate(-146.71881,-52.302399)"
         id="path23" />
    </clipPath>
    <clipPath
       clipPathUnits="userSpaceOnUse"
       id="clipPath25">
      <path
         d="M 0,141.732 H 226.772 V 0 H 0 Z"
         transform="translate(-153.24861,-57.122604)"
         id="path25" />
    </clipPath>
    <clipPath
       clipPathUnits="userSpaceOnUse"
       id="clipPath27">
      <path
         d="M 0,141.732 H 226.772 V 0 H 0 Z"
         transform="translate(-168.3378,-53.925804)"
         id="path27" />
    </clipPath>
    <clipPath
       clipPathUnits="userSpaceOnUse"
       id="clipPath29">
      <path
         d="M 0,141.732 H 226.772 V 0 H 0 Z"
         transform="translate(-184.3488,-49.793304)"
         id="path29" />
    </clipPath>
    <clipPath
       clipPathUnits="userSpaceOnUse"
       id="clipPath31">
      <path
         d="M 0,141.732 H 226.772 V 0 H 0 Z"
         transform="translate(-192.9813,-58.869204)"
         id="path31" />
    </clipPath>
    <clipPath
       clipPathUnits="userSpaceOnUse"
       id="clipPath33">
      <path
         d="M 0,141.732 H 226.772 V 0 H 0 Z"
         transform="translate(-88.205305,-67.913902)"
         id="path33" />
    </clipPath>
    <clipPath
       clipPathUnits="userSpaceOnUse"
       id="clipPath35">
      <path
         d="M 0,141.732 H 226.772 V 0 H 0 Z"
         transform="translate(-32.596701,-72.786502)"
         id="path35" />
    </clipPath>
    <clipPath
       clipPathUnits="userSpaceOnUse"
       id="clipPath37">
      <path
         d="M 0,141.732 H 226.772 V 0 H 0 Z"
         transform="translate(-55.904002,-98.665502)"
         id="path37" />
    </clipPath>
    <clipPath
       clipPathUnits="userSpaceOnUse"
       id="clipPath39">
      <path
         d="M 0,141.732 H 226.772 V 0 H 0 Z"
         transform="translate(-64.898002,-43.092204)"
         id="path39" />
    </clipPath>
    <clipPath
       clipPathUnits="userSpaceOnUse"
       id="clipPath41">
      <path
         d="M 0,141.732 H 226.772 V 0 H 0 Z"
         transform="translate(-120.24561,-41.588701)"
         id="path41" />
    </clipPath>
    <clipPath
       clipPathUnits="userSpaceOnUse"
       id="clipPath43">
      <path
         d="M 0,141.732 H 226.772 V 0 H 0 Z"
         transform="translate(-121.0854,-37.409003)"
         id="path43" />
    </clipPath>
    <clipPath
       clipPathUnits="userSpaceOnUse"
       id="clipPath45">
      <path
         d="M 0,141.732 H 226.772 V 0 H 0 Z"
         transform="translate(-122.52,-38.626801)"
         id="path45" />
    </clipPath>
    <clipPath
       clipPathUnits="userSpaceOnUse"
       id="clipPath47">
      <path
         d="M 0,141.732 H 226.772 V 0 H 0 Z"
         transform="translate(-126.73,-37.409003)"
         id="path47" />
    </clipPath>
    <clipPath
       clipPathUnits="userSpaceOnUse"
       id="clipPath49">
      <path
         d="M 0,141.732 H 226.772 V 0 H 0 Z"
         transform="translate(-131.5161,-39.507698)"
         id="path49" />
    </clipPath>
    <clipPath
       clipPathUnits="userSpaceOnUse"
       id="clipPath51">
      <path
         d="M 0,141.732 H 226.772 V 0 H 0 Z"
         transform="translate(-135.937,-41.588701)"
         id="path51" />
    </clipPath>
    <clipPath
       clipPathUnits="userSpaceOnUse"
       id="clipPath53">
      <path
         d="M 0,141.732 H 226.772 V 0 H 0 Z"
         transform="translate(-137.5522,-40.689301)"
         id="path53" />
    </clipPath>
    <clipPath
       clipPathUnits="userSpaceOnUse"
       id="clipPath55">
      <path
         d="M 0,141.732 H 226.772 V 0 H 0 Z"
         transform="translate(-142.0864,-39.652201)"
         id="path55" />
    </clipPath>
    <clipPath
       clipPathUnits="userSpaceOnUse"
       id="clipPath57">
      <path
         d="M 0,141.732 H 226.772 V 0 H 0 Z"
         transform="translate(-145.53561,-38.902201)"
         id="path57" />
    </clipPath>
    <clipPath
       clipPathUnits="userSpaceOnUse"
       id="clipPath59">
      <path
         d="M 0,141.732 H 226.772 V 0 H 0 Z"
         transform="translate(-150.4546,-39.585803)"
         id="path59" />
    </clipPath>
    <clipPath
       clipPathUnits="userSpaceOnUse"
       id="clipPath61">
      <path
         d="M 0,141.732 H 226.772 V 0 H 0 Z"
         transform="translate(-152.6743,-37.409003)"
         id="path61" />
    </clipPath>
    <clipPath
       clipPathUnits="userSpaceOnUse"
       id="clipPath63">
      <path
         d="M 0,141.732 H 226.772 V 0 H 0 Z"
         transform="translate(-155.5356,-38.902201)"
         id="path63" />
    </clipPath>
    <clipPath
       clipPathUnits="userSpaceOnUse"
       id="clipPath65">
      <path
         d="M 0,141.732 H 226.772 V 0 H 0 Z"
         transform="translate(-161.4507,-40.689301)"
         id="path65" />
    </clipPath>
    <clipPath
       clipPathUnits="userSpaceOnUse"
       id="clipPath67">
      <path
         d="M 0,141.732 H 226.772 V 0 H 0 Z"
         transform="translate(-167.8384,-38.290898)"
         id="path67" />
    </clipPath>
    <clipPath
       clipPathUnits="userSpaceOnUse"
       id="clipPath69">
      <path
         d="M 0,141.732 H 226.772 V 0 H 0 Z"
         transform="translate(-170.8569,-40.689301)"
         id="path69" />
    </clipPath>
    <clipPath
       clipPathUnits="userSpaceOnUse"
       id="clipPath71">
      <path
         d="M 0,141.732 H 226.772 V 0 H 0 Z"
         transform="translate(-178.07181,-41.588701)"
         id="path71" />
    </clipPath>
    <clipPath
       clipPathUnits="userSpaceOnUse"
       id="clipPath73">
      <path
         d="M 0,141.732 H 226.772 V 0 H 0 Z"
         transform="translate(-181.7739,-40.689301)"
         id="path73" />
    </clipPath>
    <clipPath
       clipPathUnits="userSpaceOnUse"
       id="clipPath75">
      <path
         d="M 0,141.732 H 226.772 V 0 H 0 Z"
         transform="translate(-184.2153,-38.626801)"
         id="path75" />
    </clipPath>
    <clipPath
       clipPathUnits="userSpaceOnUse"
       id="clipPath77">
      <path
         d="M 0,141.732 H 226.772 V 0 H 0 Z"
         transform="translate(-191.09421,-41.588701)"
         id="path77" />
    </clipPath>
    <clipPath
       clipPathUnits="userSpaceOnUse"
       id="clipPath79">
      <path
         d="M 0,141.732 H 226.772 V 0 H 0 Z"
         transform="translate(-192.49851,-38.902201)"
         id="path79" />
    </clipPath>
    <clipPath
       clipPathUnits="userSpaceOnUse"
       id="clipPath81">
      <path
         d="M 0,141.732 H 226.772 V 0 H 0 Z"
         transform="translate(-197.5317,-39.652201)"
         id="path81" />
    </clipPath>
  </defs>
  <g
     id="layer-MC0">
    <g
       id="g589">
      <path
         id="path1"
         d="M 0,0 H 226.771 V 141.732 H 0 Z"
         style="display:inline;fill:#f68c1b;fill-opacity:1;fill-rule:nonzero;stroke:none"
         transform="matrix(1.3333333,0,0,-1.3333333,0,188.976)" />
      <g
         id="g592">
        <g
           id="g588">
          <g
             id="g591">
            <path
               id="path40"
               d="M 0,0 C 0.096,0 0.149,-0.054 0.149,-0.155 V -0.743 C 0.149,-0.839 0.096,-0.899 0,-0.899 h -1.745 v -0.84 h 1.6 c 0.096,0 0.157,-0.06 0.157,-0.156 v -0.551 c 0,-0.096 -0.061,-0.157 -0.157,-0.157 h -1.6 v -1.42 c 0,-0.096 -0.055,-0.157 -0.156,-0.157 h -0.708 c -0.096,0 -0.156,0.055 -0.156,0.157 v 3.868 c 0,0.101 0.06,0.155 0.156,0.155 z"
               style="fill:#fde6c3;fill-opacity:1;fill-rule:nonzero;stroke:none"
               transform="matrix(1.3333333,0,0,-1.3333333,160.32747,133.5244)"
               clip-path="url(#clipPath41)" />
            <path
               id="path42"
               d="M 0,0 C -0.096,0 -0.155,0.055 -0.155,0.156 V 4.024 C -0.155,4.126 -0.096,4.18 0,4.18 H 0.708 C 0.81,4.18 0.864,4.126 0.864,4.024 V 0.156 C 0.864,0.061 0.81,0 0.708,0 Z"
               style="fill:#fde6c3;fill-opacity:1;fill-rule:nonzero;stroke:none"
               transform="matrix(1.3333333,0,0,-1.3333333,161.4472,139.09733)"
               clip-path="url(#clipPath43)" />
            <path
               id="path44"
               d="m 0,0 c -0.013,0.102 0.042,0.155 0.144,0.155 h 0.725 c 0.096,0 0.132,-0.042 0.168,-0.137 0.067,-0.276 0.33,-0.468 0.726,-0.468 0.383,0 0.672,0.179 0.672,0.456 0,0.756 -2.339,0.156 -2.339,1.691 0,0.816 0.683,1.325 1.642,1.325 C 2.603,3.022 3.25,2.519 3.34,1.769 3.357,1.667 3.292,1.606 3.189,1.606 H 2.506 c -0.09,0 -0.132,0.037 -0.161,0.139 -0.067,0.281 -0.3,0.449 -0.63,0.449 -0.336,0 -0.582,-0.168 -0.582,-0.431 0,-0.78 2.339,-0.15 2.339,-1.715 0,-0.827 -0.732,-1.325 -1.757,-1.325 C 0.762,-1.277 0.102,-0.786 0,0"
               style="fill:#fde6c3;fill-opacity:1;fill-rule:nonzero;stroke:none"
               transform="matrix(1.3333333,0,0,-1.3333333,163.36,137.4736)"
               clip-path="url(#clipPath45)" />
            <path
               id="path46"
               d="M 0,0 C -0.096,0 -0.155,0.055 -0.155,0.156 V 4.024 C -0.155,4.126 -0.096,4.18 0,4.18 H 0.708 C 0.81,4.18 0.864,4.126 0.864,4.024 V 0.156 C 0.864,0.061 0.81,0 0.708,0 Z"
               style="fill:#fde6c3;fill-opacity:1;fill-rule:nonzero;stroke:none"
               transform="matrix(1.3333333,0,0,-1.3333333,168.97333,139.09733)"
               clip-path="url(#clipPath47)" />
            <path
               id="path48"
               d="m 0,0 c 0,0.702 -0.485,1.206 -1.157,1.206 -0.672,0 -1.157,-0.504 -1.157,-1.206 0,-0.707 0.485,-1.223 1.157,-1.223 C -0.485,-1.223 0,-0.707 0,0 m -3.352,-0.006 c 0,1.248 0.917,2.148 2.195,2.148 1.277,0 2.195,-0.9 2.195,-2.148 0,-1.247 -0.918,-2.152 -2.195,-2.152 -1.278,0 -2.195,0.905 -2.195,2.152"
               style="fill:#fde6c3;fill-opacity:1;fill-rule:nonzero;stroke:none"
               transform="matrix(1.3333333,0,0,-1.3333333,175.3548,136.29907)"
               clip-path="url(#clipPath49)" />
            <path
               id="path50"
               d="M 0,0 C 0.097,0 0.15,-0.054 0.15,-0.155 V -0.743 C 0.15,-0.839 0.097,-0.899 0,-0.899 h -1.007 v -3.124 c 0,-0.102 -0.055,-0.157 -0.156,-0.157 h -0.708 c -0.096,0 -0.155,0.055 -0.155,0.157 v 3.124 h -1.008 c -0.096,0 -0.15,0.06 -0.15,0.156 v 0.588 c 0,0.101 0.054,0.155 0.15,0.155 z"
               style="fill:#fde6c3;fill-opacity:1;fill-rule:nonzero;stroke:none"
               transform="matrix(1.3333333,0,0,-1.3333333,181.24933,133.5244)"
               clip-path="url(#clipPath51)" />
            <path
               id="path52"
               d="m 0,0 v -0.749 h 1.673 c 0.096,0 0.149,-0.055 0.149,-0.15 v -0.558 c 0,-0.096 -0.053,-0.15 -0.149,-0.15 H 0 v -0.774 h 1.811 c 0.101,0 0.156,-0.054 0.156,-0.155 v -0.588 c 0,-0.102 -0.055,-0.156 -0.156,-0.156 h -2.675 c -0.096,0 -0.156,0.054 -0.156,0.156 v 3.868 c 0,0.102 0.06,0.155 0.156,0.155 h 2.675 c 0.101,0 0.156,-0.053 0.156,-0.155 V 0.156 C 1.967,0.061 1.912,0 1.811,0 Z"
               style="fill:#fde6c3;fill-opacity:1;fill-rule:nonzero;stroke:none"
               transform="matrix(1.3333333,0,0,-1.3333333,183.40293,134.7236)"
               clip-path="url(#clipPath53)" />
            <path
               id="path54"
               d="M 0,0 C 0.317,0 0.521,0.204 0.521,0.521 0.521,0.84 0.317,1.037 0,1.037 H -0.899 V 0 Z M 1.469,-2.243 H 0.72 c -0.091,0 -0.157,0.048 -0.162,0.144 -0.019,0.156 -0.025,0.396 -0.031,0.6 -0.011,0.407 -0.191,0.678 -0.485,0.678 h -0.941 v -1.266 c 0,-0.101 -0.055,-0.156 -0.157,-0.156 h -0.708 c -0.095,0 -0.155,0.055 -0.155,0.156 v 3.868 c 0,0.102 0.06,0.156 0.155,0.156 h 1.877 c 0.882,0 1.451,-0.48 1.451,-1.236 0,-0.497 -0.245,-0.869 -0.665,-1.061 0.39,-0.144 0.623,-0.461 0.654,-1.007 0.006,-0.246 0.024,-0.522 0.053,-0.714 0.013,-0.102 -0.035,-0.162 -0.137,-0.162"
               style="fill:#fde6c3;fill-opacity:1;fill-rule:nonzero;stroke:none"
               transform="matrix(1.3333333,0,0,-1.3333333,189.44853,136.1064)"
               clip-path="url(#clipPath55)" />
            <path
               id="path56"
               d="M 0,0 H 1.115 L 0.558,1.697 Z M 2.639,-1.319 C 2.675,-1.427 2.627,-1.493 2.519,-1.493 h -0.78 c -0.09,0 -0.15,0.042 -0.174,0.126 l -0.173,0.528 h -1.667 l -0.174,-0.528 c -0.03,-0.084 -0.091,-0.126 -0.175,-0.126 h -0.779 c -0.114,0 -0.162,0.066 -0.126,0.174 l 1.422,3.885 c 0.029,0.084 0.095,0.121 0.179,0.121 h 0.972 c 0.084,0 0.143,-0.037 0.18,-0.121 z"
               style="fill:#fde6c3;fill-opacity:1;fill-rule:nonzero;stroke:none"
               transform="matrix(1.3333333,0,0,-1.3333333,194.04747,137.1064)"
               clip-path="url(#clipPath57)" />
            <path
               id="path58"
               d="M 0,0 C 0.324,0 0.546,0.24 0.546,0.558 0.546,0.882 0.324,1.104 0,1.104 H -0.785 V 0 Z m 0.114,2.003 c 0.858,0 1.469,-0.594 1.469,-1.433 0,-0.84 -0.611,-1.433 -1.469,-1.433 h -0.899 v -1.158 c 0,-0.101 -0.055,-0.156 -0.156,-0.156 h -0.708 c -0.096,0 -0.156,0.055 -0.156,0.156 v 3.869 c 0,0.101 0.06,0.155 0.156,0.155 z"
               style="fill:#fde6c3;fill-opacity:1;fill-rule:nonzero;stroke:none"
               transform="matrix(1.3333333,0,0,-1.3333333,200.60613,136.19493)"
               clip-path="url(#clipPath59)" />
            <path
               id="path60"
               d="M 0,0 C -0.096,0 -0.155,0.055 -0.155,0.156 V 4.024 C -0.155,4.126 -0.096,4.18 0,4.18 H 0.708 C 0.81,4.18 0.864,4.126 0.864,4.024 V 0.156 C 0.864,0.061 0.81,0 0.708,0 Z"
               style="fill:#fde6c3;fill-opacity:1;fill-rule:nonzero;stroke:none"
               transform="matrix(1.3333333,0,0,-1.3333333,203.56573,139.09733)"
               clip-path="url(#clipPath61)" />
            <path
               id="path62"
               d="M 0,0 H 1.115 L 0.558,1.697 Z M 2.639,-1.319 C 2.675,-1.427 2.627,-1.493 2.519,-1.493 h -0.78 c -0.09,0 -0.15,0.042 -0.174,0.126 l -0.173,0.528 h -1.667 l -0.174,-0.528 c -0.03,-0.084 -0.091,-0.126 -0.175,-0.126 h -0.779 c -0.114,0 -0.162,0.066 -0.126,0.174 l 1.422,3.885 c 0.029,0.084 0.095,0.121 0.179,0.121 h 0.972 c 0.084,0 0.143,-0.037 0.18,-0.121 z"
               style="fill:#fde6c3;fill-opacity:1;fill-rule:nonzero;stroke:none"
               transform="matrix(1.3333333,0,0,-1.3333333,207.3808,137.1064)"
               clip-path="url(#clipPath63)" />
            <path
               id="path64"
               d="m 0,0 v -0.749 h 1.673 c 0.096,0 0.149,-0.055 0.149,-0.15 v -0.558 c 0,-0.096 -0.053,-0.15 -0.149,-0.15 H 0 v -0.774 h 1.811 c 0.101,0 0.156,-0.054 0.156,-0.155 v -0.588 c 0,-0.102 -0.055,-0.156 -0.156,-0.156 h -2.675 c -0.096,0 -0.156,0.054 -0.156,0.156 v 3.868 c 0,0.102 0.06,0.155 0.156,0.155 h 2.675 c 0.101,0 0.156,-0.053 0.156,-0.155 V 0.156 C 1.967,0.061 1.912,0 1.811,0 Z"
               style="fill:#fde6c3;fill-opacity:1;fill-rule:nonzero;stroke:none"
               transform="matrix(1.3333333,0,0,-1.3333333,215.2676,134.7236)"
               clip-path="url(#clipPath65)" />
            <path
               id="path66"
               d="M 0,0 C 0.234,0 0.408,0.168 0.408,0.407 0.408,0.647 0.234,0.815 0,0.815 H -0.971 V 0 Z M -0.126,2.417 H -0.971 V 1.619 h 0.845 c 0.229,0 0.402,0.174 0.402,0.402 0,0.234 -0.173,0.396 -0.402,0.396 M 1.445,0.228 c 0,-0.665 -0.491,-1.11 -1.169,-1.11 h -2.111 c -0.096,0 -0.155,0.055 -0.155,0.156 v 3.869 c 0,0.101 0.059,0.155 0.155,0.155 H 0.091 C 0.774,3.298 1.266,2.872 1.266,2.225 1.266,1.787 1.025,1.445 0.66,1.283 1.128,1.151 1.445,0.762 1.445,0.228"
               style="fill:#fde6c3;fill-opacity:1;fill-rule:nonzero;stroke:none"
               transform="matrix(1.3333333,0,0,-1.3333333,223.78453,137.92147)"
               clip-path="url(#clipPath67)" />
            <path
               id="path68"
               d="m 0,0 v -0.749 h 1.673 c 0.096,0 0.149,-0.055 0.149,-0.15 v -0.558 c 0,-0.096 -0.053,-0.15 -0.149,-0.15 H 0 v -0.774 h 1.811 c 0.101,0 0.156,-0.054 0.156,-0.155 v -0.588 c 0,-0.102 -0.055,-0.156 -0.156,-0.156 h -2.675 c -0.096,0 -0.156,0.054 -0.156,0.156 v 3.868 c 0,0.102 0.06,0.155 0.156,0.155 h 2.675 c 0.101,0 0.156,-0.053 0.156,-0.155 V 0.156 C 1.967,0.061 1.912,0 1.811,0 Z"
               style="fill:#fde6c3;fill-opacity:1;fill-rule:nonzero;stroke:none"
               transform="matrix(1.3333333,0,0,-1.3333333,227.8092,134.7236)"
               clip-path="url(#clipPath69)" />
            <path
               id="path70"
               d="M 0,0 C 0.096,0 0.155,-0.054 0.155,-0.155 V -4.023 C 0.155,-4.119 0.096,-4.18 0,-4.18 h -0.708 c -0.102,0 -0.156,0.055 -0.156,0.157 v 2.74 l -0.887,-2.765 c -0.03,-0.09 -0.084,-0.132 -0.175,-0.132 h -0.593 c -0.09,0 -0.144,0.042 -0.174,0.132 l -0.887,2.765 v -2.74 c 0,-0.096 -0.055,-0.157 -0.156,-0.157 h -0.708 c -0.096,0 -0.156,0.055 -0.156,0.157 v 3.868 C -4.6,-0.054 -4.54,0 -4.444,0 h 1.187 c 0.084,0 0.145,-0.042 0.168,-0.132 l 0.87,-2.681 0.864,2.681 C -1.332,-0.042 -1.271,0 -1.187,0 Z"
               style="fill:#fde6c3;fill-opacity:1;fill-rule:nonzero;stroke:none"
               transform="matrix(1.3333333,0,0,-1.3333333,237.42907,133.5244)"
               clip-path="url(#clipPath71)" />
            <path
               id="path72"
               d="m 0,0 v -0.749 h 1.673 c 0.096,0 0.149,-0.055 0.149,-0.15 v -0.558 c 0,-0.096 -0.053,-0.15 -0.149,-0.15 H 0 v -0.774 h 1.811 c 0.101,0 0.156,-0.054 0.156,-0.155 v -0.588 c 0,-0.102 -0.055,-0.156 -0.156,-0.156 h -2.675 c -0.096,0 -0.156,0.054 -0.156,0.156 v 3.868 c 0,0.102 0.06,0.155 0.156,0.155 h 2.675 c 0.101,0 0.156,-0.053 0.156,-0.155 V 0.156 C 1.967,0.061 1.912,0 1.811,0 Z"
               style="fill:#fde6c3;fill-opacity:1;fill-rule:nonzero;stroke:none"
               transform="matrix(1.3333333,0,0,-1.3333333,242.3652,134.7236)"
               clip-path="url(#clipPath73)" />
            <path
               id="path74"
               d="m 0,0 c -0.013,0.102 0.042,0.155 0.144,0.155 h 0.725 c 0.096,0 0.132,-0.042 0.168,-0.137 0.067,-0.276 0.33,-0.468 0.726,-0.468 0.383,0 0.672,0.179 0.672,0.456 0,0.756 -2.339,0.156 -2.339,1.691 0,0.816 0.683,1.325 1.642,1.325 C 2.603,3.022 3.25,2.519 3.34,1.769 3.357,1.667 3.292,1.606 3.189,1.606 H 2.506 c -0.09,0 -0.132,0.037 -0.161,0.139 -0.067,0.281 -0.3,0.449 -0.63,0.449 -0.336,0 -0.582,-0.168 -0.582,-0.431 0,-0.78 2.339,-0.15 2.339,-1.715 0,-0.827 -0.732,-1.325 -1.757,-1.325 C 0.762,-1.277 0.102,-0.786 0,0"
               style="fill:#fde6c3;fill-opacity:1;fill-rule:nonzero;stroke:none"
               transform="matrix(1.3333333,0,0,-1.3333333,245.6204,137.4736)"
               clip-path="url(#clipPath75)" />
            <path
               id="path76"
               d="M 0,0 C 0.097,0 0.15,-0.054 0.15,-0.155 V -0.743 C 0.15,-0.839 0.097,-0.899 0,-0.899 h -1.007 v -3.124 c 0,-0.102 -0.055,-0.157 -0.156,-0.157 h -0.708 c -0.096,0 -0.155,0.055 -0.155,0.157 v 3.124 h -1.008 c -0.096,0 -0.15,0.06 -0.15,0.156 v 0.588 c 0,0.101 0.054,0.155 0.15,0.155 z"
               style="fill:#fde6c3;fill-opacity:1;fill-rule:nonzero;stroke:none"
               transform="matrix(1.3333333,0,0,-1.3333333,254.79227,133.5244)"
               clip-path="url(#clipPath77)" />
            <path
               id="path78"
               d="M 0,0 H 1.115 L 0.558,1.697 Z M 2.639,-1.319 C 2.675,-1.427 2.627,-1.493 2.519,-1.493 h -0.78 c -0.09,0 -0.15,0.042 -0.174,0.126 l -0.173,0.528 h -1.667 l -0.174,-0.528 c -0.03,-0.084 -0.091,-0.126 -0.175,-0.126 h -0.779 c -0.114,0 -0.162,0.066 -0.126,0.174 l 1.422,3.885 c 0.029,0.084 0.095,0.121 0.179,0.121 h 0.972 c 0.084,0 0.143,-0.037 0.18,-0.121 z"
               style="fill:#fde6c3;fill-opacity:1;fill-rule:nonzero;stroke:none"
               transform="matrix(1.3333333,0,0,-1.3333333,256.66467,137.1064)"
               clip-path="url(#clipPath79)" />
            <path
               id="path80"
               d="M 0,0 C 0.317,0 0.521,0.204 0.521,0.521 0.521,0.84 0.317,1.037 0,1.037 H -0.899 V 0 Z M 1.469,-2.243 H 0.72 c -0.091,0 -0.157,0.048 -0.162,0.144 -0.019,0.156 -0.025,0.396 -0.031,0.6 -0.011,0.407 -0.191,0.678 -0.485,0.678 h -0.941 v -1.266 c 0,-0.101 -0.055,-0.156 -0.157,-0.156 h -0.708 c -0.095,0 -0.155,0.055 -0.155,0.156 v 3.868 c 0,0.102 0.06,0.156 0.155,0.156 h 1.877 c 0.882,0 1.451,-0.48 1.451,-1.236 0,-0.497 -0.245,-0.869 -0.665,-1.061 0.39,-0.144 0.623,-0.461 0.654,-1.007 0.006,-0.246 0.024,-0.522 0.053,-0.714 0.013,-0.102 -0.035,-0.162 -0.137,-0.162"
               style="fill:#fde6c3;fill-opacity:1;fill-rule:nonzero;stroke:none"
               transform="matrix(1.3333333,0,0,-1.3333333,263.3756,136.1064)"
               clip-path="url(#clipPath81)" />
          </g>
          <g
             id="g590">
            <path
               id="path2"
               d="m 0,0 v 5.264 c 0,0.77 -0.271,1.43 -0.812,1.979 -0.541,0.55 -1.197,0.825 -1.968,0.825 H -5.584 V -2.804 h 2.804 c 0.771,0 1.427,0.274 1.968,0.824 C -0.271,-1.431 0,-0.771 0,0 m -2.78,11.191 c 1.624,0 3.013,-0.578 4.17,-1.734 C 2.546,8.301 3.123,6.902 3.123,5.264 V 0 C 3.123,-1.64 2.546,-3.037 1.39,-4.194 0.233,-5.35 -1.156,-5.928 -2.78,-5.928 h -5.927 v 17.119 z"
               style="fill:#fde6c3;fill-opacity:1;fill-rule:nonzero;stroke:none"
               transform="matrix(1.3333333,0,0,-1.3333333,167.2584,62.277733)"
               clip-path="url(#clipPath3)" />
            <path
               id="path4"
               d="M 0,0 H 2.558 V -3.149 H 0 c -0.771,0 -1.431,-0.27 -1.98,-0.811 -0.549,-0.541 -0.824,-1.197 -0.824,-1.968 v -5.976 h -3.123 v 5.976 c 0,1.624 0.578,3.017 1.734,4.182 C -3.037,-0.582 -1.639,0 0,0"
               style="fill:#fde6c3;fill-opacity:1;fill-rule:nonzero;stroke:none"
               transform="matrix(1.3333333,0,0,-1.3333333,181.8508,54.308667)"
               clip-path="url(#clipPath5)" />
            <path
               id="path6"
               d="m 0,0 c 1.066,0 2.054,-0.267 2.964,-0.799 0.91,-0.533 1.627,-1.255 2.152,-2.165 0.525,-0.909 0.787,-1.898 0.787,-2.963 V -12.2 H 2.78 v 6.273 c 0,0.77 -0.275,1.43 -0.824,1.979 -0.55,0.549 -1.206,0.824 -1.968,0.824 -0.762,0 -1.419,-0.275 -1.968,-0.824 -0.549,-0.549 -0.824,-1.209 -0.824,-1.979 v -0.64 c 0,-0.771 0.275,-1.426 0.824,-1.968 0.549,-0.541 1.209,-0.811 1.98,-0.811 0.41,0 0.812,0.098 1.205,0.295 v -3.296 C 0.812,-12.445 0.41,-12.494 0,-12.494 c -1.639,0 -3.037,0.581 -4.193,1.746 -1.156,1.164 -1.734,2.558 -1.734,4.181 v 0.64 c 0,1.623 0.578,3.016 1.734,4.18 C -3.037,-0.583 -1.639,0 0,0"
               style="fill:#fde6c3;fill-opacity:1;fill-rule:nonzero;stroke:none"
               transform="matrix(1.3333333,0,0,-1.3333333,194.50893,53.915333)"
               clip-path="url(#clipPath7)" />
            <path
               id="path8"
               d="m 0,0 c -0.345,-0.345 -0.762,-0.517 -1.254,-0.517 -0.492,0 -0.91,0.172 -1.255,0.517 -0.344,0.344 -0.516,0.762 -0.516,1.254 0,0.492 0.172,0.91 0.516,1.255 0.345,0.344 0.763,0.516 1.255,0.516 C -0.762,3.025 -0.345,2.853 0,2.509 0.344,2.164 0.516,1.746 0.516,1.254 0.516,0.762 0.344,0.344 0,0"
               style="fill:#fde6c3;fill-opacity:1;fill-rule:nonzero;stroke:none"
               transform="matrix(1.3333333,0,0,-1.3333333,208.4796,69.492133)"
               clip-path="url(#clipPath9)" />
            <path
               id="path10"
               d="m 0,0 v -3.149 h -5.46 c -1.115,0 -2.066,0.398 -2.853,1.193 C -9.1,-1.16 -9.494,-0.205 -9.494,0.91 V 13.97 H -6.37 V 0.91 C -6.37,0.647 -6.28,0.43 -6.1,0.258 -5.919,0.086 -5.706,0 -5.46,0 Z"
               style="fill:#fde6c3;fill-opacity:1;fill-rule:nonzero;stroke:none"
               transform="matrix(1.3333333,0,0,-1.3333333,168.3704,94.092)"
               clip-path="url(#clipPath11)" />
            <path
               id="path12"
               d="m 0,0 h 3.124 v -6.272 c 0,-1.64 -0.578,-3.038 -1.734,-4.193 -1.157,-1.156 -2.55,-1.734 -4.182,-1.734 -1.631,0 -3.025,0.578 -4.181,1.734 -1.156,1.155 -1.734,2.553 -1.734,4.193 V 0 h 3.124 v -6.272 c 0,-0.771 0.274,-1.431 0.824,-1.98 0.549,-0.549 1.205,-0.824 1.967,-0.824 0.763,0 1.419,0.275 1.968,0.824 C -0.275,-7.703 0,-7.043 0,-6.272 Z"
               style="fill:#fde6c3;fill-opacity:1;fill-rule:nonzero;stroke:none"
               transform="matrix(1.3333333,0,0,-1.3333333,181.35653,82.4176)"
               clip-path="url(#clipPath13)" />
            <path
               id="path14"
               d="m 144.453,68.014 h -3.148 v 11.905 h 3.148 z m -1.574,13.872 c -0.328,0 -0.627,0.078 -0.898,0.234 -0.27,0.156 -0.484,0.369 -0.639,0.639 -0.156,0.271 -0.234,0.57 -0.234,0.898 0,0.492 0.172,0.91 0.517,1.255 0.344,0.343 0.762,0.516 1.254,0.516 0.492,0 0.91,-0.173 1.255,-0.516 0.344,-0.345 0.516,-0.763 0.516,-1.255 0,-0.492 -0.172,-0.91 -0.516,-1.254 -0.345,-0.344 -0.763,-0.517 -1.255,-0.517"
               style="fill:#fde6c3;fill-opacity:1;fill-rule:nonzero;stroke:none"
               transform="matrix(1.3333333,0,0,-1.3333333,0,188.976)"
               clip-path="url(#clipPath15)" />
            <path
               id="path16"
               d="M 0,0 H 7.207 V -3.124 H -4.624 c -0.295,2.034 0.541,3.853 2.509,5.461 L 2.484,5.632 -4.28,5.657 V 8.781 H 7.108 C 7.419,6.747 6.583,4.927 4.599,3.32 Z"
               style="fill:#fde6c3;fill-opacity:1;fill-rule:nonzero;stroke:none"
               transform="matrix(1.3333333,0,0,-1.3333333,201.36,94.125333)"
               clip-path="url(#clipPath17)" />
            <path
               id="path18"
               d="m 0,0 c 1.066,0 2.054,-0.267 2.964,-0.799 0.91,-0.533 1.627,-1.255 2.152,-2.165 0.525,-0.909 0.787,-1.898 0.787,-2.963 V -12.2 H 2.78 v 6.273 c 0,0.77 -0.275,1.43 -0.824,1.979 -0.55,0.549 -1.206,0.824 -1.968,0.824 -0.762,0 -1.419,-0.275 -1.968,-0.824 -0.549,-0.549 -0.824,-1.209 -0.824,-1.979 v -0.64 c 0,-0.771 0.275,-1.426 0.824,-1.968 0.549,-0.541 1.209,-0.811 1.98,-0.811 0.41,0 0.812,0.098 1.205,0.295 v -3.296 C 0.812,-12.445 0.41,-12.494 0,-12.494 c -1.639,0 -3.037,0.581 -4.193,1.746 -1.156,1.164 -1.734,2.558 -1.734,4.181 v 0.64 c 0,1.623 0.578,3.016 1.734,4.18 C -3.037,-0.583 -1.639,0 0,0"
               style="fill:#fde6c3;fill-opacity:1;fill-rule:nonzero;stroke:none"
               transform="matrix(1.3333333,0,0,-1.3333333,220.64227,82.024267)"
               clip-path="url(#clipPath19)" />
            <path
               id="path20"
               d="m 0,0 c 0,-1.165 -0.415,-2.164 -1.242,-3 -0.828,-0.837 -1.829,-1.255 -3.001,-1.255 -1.172,0 -2.173,0.418 -3.001,1.255 -0.828,0.836 -1.242,1.835 -1.242,3 v 9.199 c 0,0.311 -0.111,0.578 -0.331,0.799 -0.222,0.221 -0.489,0.332 -0.8,0.332 -0.311,0 -0.578,-0.111 -0.799,-0.332 -0.222,-0.221 -0.332,-0.488 -0.332,-0.799 V -3.96 h -3.124 V 9.199 c 0,1.164 0.414,2.164 1.242,3 0.828,0.837 1.828,1.254 3.001,1.254 1.172,0 2.177,-0.417 3.013,-1.254 0.836,-0.836 1.254,-1.836 1.254,-3 V 0 c 0,-0.312 0.111,-0.574 0.332,-0.787 0.221,-0.213 0.488,-0.32 0.799,-0.32 0.197,0 0.382,0.049 0.554,0.148 0.172,0.098 0.307,0.234 0.406,0.406 0.098,0.172 0.147,0.356 0.147,0.553 v 9.199 c 0,1.164 0.418,2.164 1.255,3 0.836,0.837 1.84,1.254 3.013,1.254 1.172,0 2.172,-0.417 3,-1.254 0.828,-0.836 1.242,-1.836 1.242,-3 V -3.96 H 2.263 V 9.199 C 2.263,9.51 2.152,9.777 1.93,9.998 1.709,10.219 1.443,10.33 1.131,10.33 0.819,10.33 0.553,10.219 0.332,9.998 0.11,9.777 0,9.51 0,9.199 Z"
               style="fill:#fde6c3;fill-opacity:1;fill-rule:nonzero;stroke:none"
               transform="matrix(1.3333333,0,0,-1.3333333,174.21173,121.4696)"
               clip-path="url(#clipPath21)" />
            <path
               id="path22"
               d="M 0,0 V 0.64 C 0,1.41 -0.275,2.07 -0.824,2.619 -1.373,3.168 -2.029,3.443 -2.792,3.443 -3.554,3.443 -4.21,3.168 -4.759,2.619 -5.309,2.07 -5.583,1.41 -5.583,0.64 V 0 c 0,-0.771 0.274,-1.427 0.824,-1.968 0.549,-0.541 1.205,-0.812 1.967,-0.812 0.763,0 1.419,0.271 1.968,0.812 C -0.275,-1.427 0,-0.771 0,0 m -6.973,4.82 c 1.156,1.164 2.55,1.747 4.181,1.747 C -1.16,6.567 0.233,5.984 1.39,4.82 2.546,3.656 3.124,2.263 3.124,0.64 V 0 c 0,-1.623 -0.578,-3.017 -1.734,-4.181 -1.157,-1.165 -2.55,-1.746 -4.182,-1.746 -1.631,0 -3.025,0.581 -4.181,1.746 -1.156,1.164 -1.734,2.558 -1.734,4.181 v 0.64 c 0,1.623 0.578,3.016 1.734,4.18"
               style="fill:#fde6c3;fill-opacity:1;fill-rule:nonzero;stroke:none"
               transform="matrix(1.3333333,0,0,-1.3333333,195.62507,119.23947)"
               clip-path="url(#clipPath23)" />
            <path
               id="path24"
               d="m 0,0 c 1.156,1.164 2.549,1.747 4.181,1.747 1.631,0 3.025,-0.583 4.181,-1.747 1.156,-1.164 1.734,-2.558 1.734,-4.181 v -6.272 H 6.973 v 6.272 c 0,0.771 -0.275,1.431 -0.824,1.98 -0.55,0.549 -1.202,0.824 -1.956,0.824 C 3.8,-1.377 3.431,-1.451 3.087,-1.598 2.742,-1.746 2.447,-1.947 2.201,-2.201 1.955,-2.455 1.758,-2.754 1.611,-3.099 1.463,-3.443 1.39,-3.804 1.39,-4.181 v -6.272 h -3.124 v 6.272 c 0,1.623 0.578,3.017 1.734,4.181"
               style="fill:#fde6c3;fill-opacity:1;fill-rule:nonzero;stroke:none"
               transform="matrix(1.3333333,0,0,-1.3333333,204.33147,112.81253)"
               clip-path="url(#clipPath25)" />
            <path
               id="path26"
               d="M 0,0 H 5.189 C 4.993,0.541 4.656,0.975 4.181,1.303 3.705,1.631 3.176,1.795 2.595,1.795 2.012,1.795 1.484,1.631 1.008,1.303 0.532,0.975 0.196,0.541 0,0 M -1.586,3.197 C -0.431,4.361 0.963,4.943 2.595,4.943 4.226,4.943 5.62,4.361 6.776,3.197 7.932,2.033 8.51,0.639 8.51,-0.984 v -0.639 c 0,-0.312 -0.033,-0.64 -0.099,-0.985 H 0 c 0.196,-0.541 0.532,-0.975 1.008,-1.303 0.476,-0.328 1.009,-0.492 1.599,-0.492 0.688,0 1.304,0.237 1.845,0.713 L 7.575,-4.821 C 7.034,-5.657 6.324,-6.321 5.448,-6.813 4.57,-7.305 3.624,-7.551 2.607,-7.551 c -1.64,0 -3.038,0.582 -4.193,1.747 -1.156,1.164 -1.734,2.557 -1.734,4.181 v 0.639 c 0,1.623 0.578,3.017 1.734,4.181"
               style="fill:#fde6c3;fill-opacity:1;fill-rule:nonzero;stroke:none"
               transform="matrix(1.3333333,0,0,-1.3333333,224.4504,117.07493)"
               clip-path="url(#clipPath27)" />
            <path
               id="path28"
               d="M 0,0 H 1.353 V -3.124 H 0 c -1.639,0 -3.037,0.578 -4.194,1.734 -1.155,1.157 -1.733,2.554 -1.733,4.194 v 10.453 h 3.123 V 8.781 H 0.762 V 5.632 H -2.804 V 2.804 c 0,-0.771 0.274,-1.431 0.824,-1.98 C -1.431,0.275 -0.771,0 0,0"
               style="fill:#fde6c3;fill-opacity:1;fill-rule:nonzero;stroke:none"
               transform="matrix(1.3333333,0,0,-1.3333333,245.7984,122.58493)"
               clip-path="url(#clipPath29)" />
            <path
               id="path30"
               d="m 0,0 c 1.066,0 2.054,-0.267 2.964,-0.799 0.91,-0.533 1.627,-1.255 2.152,-2.165 0.525,-0.91 0.787,-1.898 0.787,-2.963 V -12.2 H 2.78 v 6.273 c 0,0.77 -0.275,1.43 -0.824,1.979 -0.55,0.549 -1.206,0.824 -1.968,0.824 -0.762,0 -1.419,-0.275 -1.968,-0.824 -0.549,-0.549 -0.824,-1.209 -0.824,-1.979 v -0.64 c 0,-0.771 0.275,-1.426 0.824,-1.968 0.549,-0.541 1.209,-0.811 1.98,-0.811 0.41,0 0.812,0.098 1.205,0.295 v -3.296 C 0.812,-12.445 0.41,-12.494 0,-12.494 c -1.639,0 -3.037,0.581 -4.193,1.746 -1.156,1.164 -1.734,2.558 -1.734,4.181 v 0.64 c 0,1.623 0.578,3.016 1.734,4.18 C -3.037,-0.583 -1.639,0 0,0"
               style="fill:#fde6c3;fill-opacity:1;fill-rule:nonzero;stroke:none"
               transform="matrix(1.3333333,0,0,-1.3333333,257.3084,110.48373)"
               clip-path="url(#clipPath31)" />
          </g>
        </g>
        <g
           id="g587">
          <path
             id="path32"
             d="m 0,0 c -1.618,0.934 -3.376,1.401 -5.271,1.401 h -7.238 -30.591 -7.237 c -1.895,0 -3.653,-0.467 -5.272,-1.401 -1.618,-0.934 -2.902,-2.209 -3.85,-3.828 -0.947,-1.619 -1.422,-3.376 -1.422,-5.272 0,-2.916 1.037,-5.403 3.107,-7.458 2.071,-2.057 4.55,-3.085 7.437,-3.085 h 1.137 c 2.888,0 5.367,1.028 7.438,3.085 2.071,2.055 3.106,4.542 3.106,7.458 0,0.729 -0.088,1.444 -0.262,2.144 h -5.863 c 0.351,-0.7 0.526,-1.415 0.526,-2.144 0,-1.371 -0.481,-2.545 -1.444,-3.521 -0.963,-0.978 -2.129,-1.466 -3.501,-1.466 h -1.137 c -1.371,0 -2.544,0.488 -3.522,1.466 -0.976,0.976 -1.465,2.144 -1.465,3.5 0,1.356 0.489,2.522 1.465,3.5 0.978,0.976 2.151,1.465 3.522,1.465 h 7.237 30.591 7.238 c 1.37,0 2.544,-0.489 3.521,-1.465 0.977,-0.978 1.466,-2.144 1.466,-3.5 0,-1.356 -0.489,-2.524 -1.466,-3.5 -0.977,-0.978 -2.151,-1.466 -3.521,-1.466 h -1.138 c -1.371,0 -2.538,0.488 -3.501,1.466 -0.962,0.976 -1.443,2.15 -1.443,3.521 0,0.729 0.174,1.444 0.525,2.144 h -5.862 c -0.175,-0.7 -0.262,-1.415 -0.262,-2.144 0,-2.916 1.034,-5.403 3.106,-7.458 2.07,-2.057 4.549,-3.085 7.437,-3.085 h 1.138 c 2.887,0 5.365,1.028 7.436,3.085 2.071,2.055 3.107,4.542 3.107,7.458 0,1.896 -0.475,3.653 -1.422,5.272 C 2.902,-2.209 1.619,-0.934 0,0"
             style="fill:#fde6c3;fill-opacity:1;fill-rule:nonzero;stroke:none"
             transform="matrix(1.3333333,0,0,-1.3333333,117.60707,98.424133)"
             clip-path="url(#clipPath33)" />
          <path
             id="path34"
             d="m 0,0 c 1.618,-0.934 3.376,-1.401 5.271,-1.401 h 7.238 30.591 7.237 c 1.895,0 3.653,0.467 5.272,1.401 1.618,0.934 2.901,2.209 3.85,3.828 0.947,1.619 1.422,3.376 1.422,5.272 0,2.916 -1.037,5.403 -3.107,7.459 -2.071,2.056 -4.55,3.084 -7.437,3.084 h -1.138 c -2.887,0 -5.366,-1.028 -7.437,-3.084 -2.071,-2.056 -3.106,-4.543 -3.106,-7.459 0,-0.729 0.087,-1.444 0.262,-2.144 h 5.863 c -0.351,0.7 -0.526,1.415 -0.526,2.144 0,1.371 0.481,2.545 1.444,3.521 0.963,0.978 2.129,1.466 3.5,1.466 h 1.138 c 1.371,0 2.544,-0.488 3.522,-1.466 0.976,-0.976 1.465,-2.144 1.465,-3.5 0,-1.356 -0.489,-2.522 -1.465,-3.5 C 52.881,4.645 51.708,4.156 50.337,4.156 H 43.1 12.509 5.271 c -1.37,0 -2.544,0.489 -3.521,1.465 -0.977,0.978 -1.466,2.144 -1.466,3.5 0,1.356 0.489,2.524 1.466,3.5 0.977,0.978 2.151,1.466 3.521,1.466 h 1.138 c 1.371,0 2.538,-0.488 3.501,-1.466 0.962,-0.976 1.443,-2.15 1.443,-3.521 0,-0.729 -0.174,-1.444 -0.525,-2.144 h 5.862 c 0.175,0.7 0.262,1.415 0.262,2.144 0,2.916 -1.034,5.403 -3.106,7.459 -2.07,2.056 -4.549,3.084 -7.437,3.084 H 5.271 c -2.887,0 -5.365,-1.028 -7.436,-3.084 C -4.236,14.503 -5.272,12.016 -5.272,9.1 -5.272,7.204 -4.797,5.447 -3.85,3.828 -2.902,2.209 -1.619,0.934 0,0"
             style="fill:#fde6c3;fill-opacity:1;fill-rule:nonzero;stroke:none"
             transform="matrix(1.3333333,0,0,-1.3333333,43.462267,91.927333)"
             clip-path="url(#clipPath35)" />
          <path
             id="path36"
             d="m 0,0 c 0,1.241 0.442,2.304 1.327,3.189 0.885,0.884 1.942,1.327 3.17,1.327 1.228,0 2.284,-0.443 3.17,-1.327 C 8.551,2.304 8.994,1.241 8.994,0 v -1.03 c 0,-1.242 -0.443,-2.299 -1.327,-3.171 -0.886,-0.871 -1.942,-1.307 -3.17,-1.307 -1.228,0 -2.285,0.436 -3.17,1.307 C 0.442,-3.329 0,-2.272 0,-1.03 Z m 4.497,-10.579 c 2.628,0 4.873,0.937 6.735,2.813 1.863,1.875 2.794,4.12 2.794,6.736 V 0 c 0,2.614 -0.931,4.859 -2.794,6.735 C 9.37,8.61 7.125,9.548 4.497,9.548 1.868,9.548 -0.377,8.61 -2.238,6.735 -4.101,4.859 -5.032,2.614 -5.032,0 v -1.03 c 0,-2.616 0.931,-4.861 2.794,-6.736 1.861,-1.876 4.106,-2.813 6.735,-2.813"
             style="fill:#fde6c3;fill-opacity:1;fill-rule:nonzero;stroke:none"
             transform="matrix(1.3333333,0,0,-1.3333333,74.538667,57.422)"
             clip-path="url(#clipPath37)" />
          <path
             id="path38"
             d="m 0,0 c 0,-1.242 -0.443,-2.298 -1.327,-3.17 -0.886,-0.872 -1.942,-1.308 -3.17,-1.308 -1.228,0 -2.285,0.436 -3.17,1.308 -0.885,0.872 -1.327,1.928 -1.327,3.17 v 1.03 c 0,1.242 0.442,2.304 1.327,3.189 0.885,0.885 1.942,1.328 3.17,1.328 1.228,0 2.284,-0.443 3.17,-1.328 C -0.443,3.334 0,2.272 0,1.03 Z m -4.497,10.579 c -2.629,0 -4.874,-0.939 -6.735,-2.814 -1.863,-1.875 -2.794,-4.12 -2.794,-6.735 V 0 c 0,-2.615 0.931,-4.86 2.794,-6.735 1.861,-1.877 4.106,-2.813 6.735,-2.813 2.628,0 4.873,0.936 6.735,2.813 1.863,1.875 2.794,4.12 2.794,6.735 v 1.03 c 0,2.615 -0.931,4.86 -2.794,6.735 -1.862,1.875 -4.107,2.814 -6.735,2.814"
             style="fill:#fde6c3;fill-opacity:1;fill-rule:nonzero;stroke:none"
             transform="matrix(1.3333333,0,0,-1.3333333,86.530667,131.51973)"
             clip-path="url(#clipPath39)" />
        </g>
      </g>
    </g>
  </g>
</svg>
