<?xml version="1.0" encoding="UTF-8" standalone="no"?>
<!-- Created with Inkscape (http://www.inkscape.org/) -->

<svg
   version="1.1"
   id="svg1"
   width="122.86841"
   height="138.68761"
   viewBox="0 0 122.86841 138.68761"
   sodipodi:docname="Dra Luiza Moneta - Logo.pdf"
   xmlns:inkscape="http://www.inkscape.org/namespaces/inkscape"
   xmlns:sodipodi="http://sodipodi.sourceforge.net/DTD/sodipodi-0.dtd"
   xmlns="http://www.w3.org/2000/svg"
   xmlns:svg="http://www.w3.org/2000/svg">
  <defs
     id="defs1">
    <clipPath
       clipPathUnits="userSpaceOnUse"
       id="clipPath579">
      <path
         d="M 67.3102,122.64 H 159.462 V 18.6243 H 67.3102 Z"
         transform="translate(-152.11751,-66.502202)"
         id="path579" />
    </clipPath>
    <clipPath
       clipPathUnits="userSpaceOnUse"
       id="clipPath580">
      <path
         d="M 67.3102,122.64 H 159.462 V 18.6243 H 67.3102 Z"
         transform="translate(-74.654204,-73.289802)"
         id="path580" />
    </clipPath>
    <clipPath
       clipPathUnits="userSpaceOnUse"
       id="clipPath581">
      <path
         d="M 67.3102,122.64 H 159.462 V 18.6243 H 67.3102 Z"
         transform="translate(-107.1215,-109.3394)"
         id="path581" />
    </clipPath>
    <clipPath
       clipPathUnits="userSpaceOnUse"
       id="clipPath582">
      <path
         d="M 67.3102,122.64 H 159.462 V 18.6243 H 67.3102 Z"
         transform="translate(-119.65031,-31.925303)"
         id="path582" />
    </clipPath>
    <clipPath
       clipPathUnits="userSpaceOnUse"
       id="clipPath587">
      <path
         d="M 0,141.732 H 226.772 V 0 H 0 Z"
         transform="matrix(1.3333333,0,0,-1.3333333,644.72533,188.976)"
         id="path587" />
    </clipPath>
  </defs>
  <sodipodi:namedview
     id="namedview1"
     pagecolor="#ffffff"
     bordercolor="#000000"
     borderopacity="0.25"
     inkscape:showpageshadow="2"
     inkscape:pageopacity="0.0"
     inkscape:pagecheckerboard="0"
     inkscape:deskcolor="#d1d1d1">
    <inkscape:page
       x="-1.5791672e-06"
       y="-3.0570328e-07"
       width="122.86841"
       height="138.68761"
       id="page2"
       margin="0"
       bleed="0" />
  </sodipodi:namedview>
  <g
     id="layer-MC0"
     inkscape:groupmode="layer"
     inkscape:label="Layer 1"
     transform="translate(-734.47229,-25.455999)">
    <g
       opacity="0.0800018"
       id="g586"
       clip-path="url(#clipPath587)"
       inkscape:export-filename="marca-dagua.svg"
       inkscape:export-xdpi="96"
       inkscape:export-ydpi="96">
      <path
         d="M 0,0 C -2.254,1.301 -4.703,1.951 -7.343,1.951 H -17.425 -60.038 -70.12 c -2.64,0 -5.089,-0.65 -7.343,-1.951 -2.255,-1.301 -4.043,-3.077 -5.363,-5.332 -1.32,-2.255 -1.981,-4.703 -1.981,-7.344 0,-4.063 1.443,-7.527 4.328,-10.39 2.884,-2.865 6.337,-4.297 10.359,-4.297 h 1.585 c 4.022,0 7.475,1.432 10.36,4.297 2.885,2.863 4.327,6.327 4.327,10.39 0,1.015 -0.122,2.012 -0.365,2.986 h -8.167 c 0.489,-0.974 0.732,-1.971 0.732,-2.986 0,-1.91 -0.67,-3.545 -2.011,-4.905 -1.342,-1.362 -2.966,-2.042 -4.876,-2.042 h -1.585 c -1.909,0 -3.544,0.68 -4.906,2.042 -1.36,1.36 -2.041,2.986 -2.041,4.875 0,1.889 0.681,3.514 2.041,4.875 1.362,1.361 2.997,2.042 4.906,2.042 h 10.082 42.613 10.082 c 1.909,0 3.544,-0.681 4.905,-2.042 1.361,-1.361 2.042,-2.986 2.042,-4.875 0,-1.889 -0.681,-3.515 -2.042,-4.875 -1.361,-1.362 -2.996,-2.042 -4.905,-2.042 h -1.585 c -1.91,0 -3.535,0.68 -4.876,2.042 -1.341,1.36 -2.011,2.995 -2.011,4.905 0,1.015 0.243,2.012 0.732,2.986 h -8.167 c -0.243,-0.974 -0.365,-1.971 -0.365,-2.986 0,-4.063 1.441,-7.527 4.327,-10.39 2.884,-2.865 6.337,-4.297 10.36,-4.297 h 1.585 c 4.022,0 7.475,1.432 10.359,4.297 2.885,2.863 4.328,6.327 4.328,10.39 0,2.641 -0.661,5.089 -1.981,7.344 C 4.042,-3.077 2.255,-1.301 0,0"
         style="fill:#f68c1b;fill-opacity:1;fill-rule:nonzero;stroke:none"
         transform="matrix(1.3333333,0,0,-1.3333333,847.54867,100.3064)"
         clip-path="url(#clipPath579)"
         id="path583" />
      <path
         d="M 0,0 C 2.254,-1.301 4.703,-1.951 7.343,-1.951 H 17.425 60.038 70.12 c 2.64,0 5.089,0.65 7.343,1.951 2.255,1.301 4.043,3.077 5.363,5.332 1.32,2.255 1.981,4.703 1.981,7.344 0,4.063 -1.443,7.527 -4.328,10.39 -2.884,2.865 -6.337,4.297 -10.359,4.297 h -1.585 c -4.022,0 -7.475,-1.432 -10.36,-4.297 -2.886,-2.863 -4.327,-6.327 -4.327,-10.39 0,-1.015 0.122,-2.012 0.365,-2.986 h 8.167 c -0.489,0.974 -0.732,1.971 -0.732,2.986 0,1.91 0.67,3.545 2.011,4.905 1.341,1.362 2.966,2.042 4.876,2.042 h 1.585 c 1.909,0 3.544,-0.68 4.906,-2.042 1.36,-1.36 2.041,-2.986 2.041,-4.875 0,-1.889 -0.681,-3.514 -2.041,-4.875 C 73.664,6.47 72.029,5.789 70.12,5.789 H 60.038 17.425 7.343 c -1.909,0 -3.544,0.681 -4.905,2.042 -1.361,1.361 -2.042,2.986 -2.042,4.875 0,1.889 0.681,3.515 2.042,4.875 1.361,1.362 2.996,2.042 4.905,2.042 h 1.585 c 1.91,0 3.535,-0.68 4.876,-2.042 1.341,-1.36 2.011,-2.995 2.011,-4.905 0,-1.015 -0.243,-2.012 -0.732,-2.986 h 8.167 c 0.243,0.974 0.365,1.971 0.365,2.986 0,4.063 -1.441,7.527 -4.327,10.39 -2.884,2.865 -6.338,4.297 -10.36,4.297 H 7.343 c -4.022,0 -7.475,-1.432 -10.359,-4.297 -2.885,-2.863 -4.328,-6.327 -4.328,-10.39 0,-2.641 0.661,-5.089 1.981,-7.344 C -4.043,3.077 -2.255,1.301 0,0"
         style="fill:#f68c1b;fill-opacity:1;fill-rule:nonzero;stroke:none"
         transform="matrix(1.3333333,0,0,-1.3333333,744.26427,91.256267)"
         clip-path="url(#clipPath580)"
         id="path584" />
      <path
         d="M 0,0 C 0,1.729 0.616,3.209 1.849,4.442 3.081,5.674 4.554,6.291 6.264,6.291 7.975,6.291 9.447,5.674 10.68,4.442 11.912,3.209 12.529,1.729 12.529,0 v -1.435 c 0,-1.73 -0.617,-3.202 -1.849,-4.417 -1.233,-1.214 -2.705,-1.821 -4.416,-1.821 -1.71,0 -3.183,0.607 -4.415,1.821 C 0.616,-4.637 0,-3.165 0,-1.435 Z m 6.264,-14.736 c 3.661,0 6.789,1.305 9.383,3.918 2.594,2.612 3.891,5.74 3.891,9.383 V 0 c 0,3.642 -1.297,6.769 -3.891,9.381 -2.594,2.613 -5.722,3.92 -9.383,3.92 -3.662,0 -6.789,-1.307 -9.382,-3.92 C -5.712,6.769 -7.01,3.642 -7.01,0 v -1.435 c 0,-3.643 1.298,-6.771 3.892,-9.383 2.593,-2.613 5.72,-3.918 9.382,-3.918"
         style="fill:#f68c1b;fill-opacity:1;fill-rule:nonzero;stroke:none"
         transform="matrix(1.3333333,0,0,-1.3333333,787.554,43.190133)"
         clip-path="url(#clipPath581)"
         id="path585" />
      <path
         d="m 0,0 c 0,-1.73 -0.617,-3.201 -1.849,-4.416 -1.233,-1.214 -2.705,-1.821 -4.415,-1.821 -1.711,0 -3.184,0.607 -4.416,1.821 -1.233,1.215 -1.849,2.686 -1.849,4.416 v 1.435 c 0,1.729 0.616,3.21 1.849,4.443 1.232,1.232 2.705,1.849 4.416,1.849 1.71,0 3.182,-0.617 4.415,-1.849 C -0.617,4.645 0,3.164 0,1.435 Z m -6.264,14.736 c -3.663,0 -6.79,-1.307 -9.383,-3.919 -2.594,-2.612 -3.891,-5.74 -3.891,-9.382 V 0 c 0,-3.643 1.297,-6.77 3.891,-9.383 2.593,-2.613 5.72,-3.918 9.383,-3.918 3.661,0 6.788,1.305 9.382,3.918 C 5.712,-6.77 7.01,-3.643 7.01,0 v 1.435 c 0,3.642 -1.298,6.77 -3.892,9.382 -2.594,2.612 -5.721,3.919 -9.382,3.919"
         style="fill:#f68c1b;fill-opacity:1;fill-rule:nonzero;stroke:none"
         transform="matrix(1.3333333,0,0,-1.3333333,804.25907,146.40893)"
         clip-path="url(#clipPath582)"
         id="path586" />
    </g>
  </g>
</svg>
