<?xml version="1.0" encoding="UTF-8" standalone="no"?>
<!-- Created with Inkscape (http://www.inkscape.org/) -->

<svg
   version="1.1"
   id="svg1"
   width="133.013"
   height="133.013"
   viewBox="0 0 133.013 133.013"
   xmlns="http://www.w3.org/2000/svg"
   xmlns:svg="http://www.w3.org/2000/svg">
  <defs
     id="defs1">
    <clipPath
       clipPathUnits="userSpaceOnUse"
       id="clipPath33">
      <path
         d="M 0,141.732 H 226.772 V 0 H 0 Z"
         transform="translate(-88.205305,-67.913902)"
         id="path33" />
    </clipPath>
    <clipPath
       clipPathUnits="userSpaceOnUse"
       id="clipPath35">
      <path
         d="M 0,141.732 H 226.772 V 0 H 0 Z"
         transform="translate(-32.596701,-72.786502)"
         id="path35" />
    </clipPath>
    <clipPath
       clipPathUnits="userSpaceOnUse"
       id="clipPath37">
      <path
         d="M 0,141.732 H 226.772 V 0 H 0 Z"
         transform="translate(-55.904002,-98.665502)"
         id="path37" />
    </clipPath>
    <clipPath
       clipPathUnits="userSpaceOnUse"
       id="clipPath39">
      <path
         d="M 0,141.732 H 226.772 V 0 H 0 Z"
         transform="translate(-64.898002,-43.092204)"
         id="path39" />
    </clipPath>
  </defs>
  <g
     id="layer-MC0">
    <g
       id="g589"
       transform="translate(-84.674835,-27.964365)">
      <path
         id="path1"
         d="M 84.674833,160.97736 H 217.68784 V 27.964368 H 84.674833 Z"
         style="display:inline;fill:#f68c1b;fill-opacity:1;fill-rule:nonzero;stroke:none;stroke-width:0.741934" />
      <g
         id="g587"
         transform="translate(70.646667)">
        <path
           id="path32"
           d="m 0,0 c -1.618,0.934 -3.376,1.401 -5.271,1.401 h -7.238 -30.591 -7.237 c -1.895,0 -3.653,-0.467 -5.272,-1.401 -1.618,-0.934 -2.902,-2.209 -3.85,-3.828 -0.947,-1.619 -1.422,-3.376 -1.422,-5.272 0,-2.916 1.037,-5.403 3.107,-7.458 2.071,-2.057 4.55,-3.085 7.437,-3.085 h 1.137 c 2.888,0 5.367,1.028 7.438,3.085 2.071,2.055 3.106,4.542 3.106,7.458 0,0.729 -0.088,1.444 -0.262,2.144 h -5.863 c 0.351,-0.7 0.526,-1.415 0.526,-2.144 0,-1.371 -0.481,-2.545 -1.444,-3.521 -0.963,-0.978 -2.129,-1.466 -3.501,-1.466 h -1.137 c -1.371,0 -2.544,0.488 -3.522,1.466 -0.976,0.976 -1.465,2.144 -1.465,3.5 0,1.356 0.489,2.522 1.465,3.5 0.978,0.976 2.151,1.465 3.522,1.465 h 7.237 30.591 7.238 c 1.37,0 2.544,-0.489 3.521,-1.465 0.977,-0.978 1.466,-2.144 1.466,-3.5 0,-1.356 -0.489,-2.524 -1.466,-3.5 -0.977,-0.978 -2.151,-1.466 -3.521,-1.466 h -1.138 c -1.371,0 -2.538,0.488 -3.501,1.466 -0.962,0.976 -1.443,2.15 -1.443,3.521 0,0.729 0.174,1.444 0.525,2.144 h -5.862 c -0.175,-0.7 -0.262,-1.415 -0.262,-2.144 0,-2.916 1.034,-5.403 3.106,-7.458 2.07,-2.057 4.549,-3.085 7.437,-3.085 h 1.138 c 2.887,0 5.365,1.028 7.436,3.085 2.071,2.055 3.107,4.542 3.107,7.458 0,1.896 -0.475,3.653 -1.422,5.272 C 2.902,-2.209 1.619,-0.934 0,0"
           style="fill:#fde6c3;fill-opacity:1;fill-rule:nonzero;stroke:none"
           transform="matrix(1.3333333,0,0,-1.3333333,117.60707,98.424133)"
           clip-path="url(#clipPath33)" />
        <path
           id="path34"
           d="m 0,0 c 1.618,-0.934 3.376,-1.401 5.271,-1.401 h 7.238 30.591 7.237 c 1.895,0 3.653,0.467 5.272,1.401 1.618,0.934 2.901,2.209 3.85,3.828 0.947,1.619 1.422,3.376 1.422,5.272 0,2.916 -1.037,5.403 -3.107,7.459 -2.071,2.056 -4.55,3.084 -7.437,3.084 h -1.138 c -2.887,0 -5.366,-1.028 -7.437,-3.084 -2.071,-2.056 -3.106,-4.543 -3.106,-7.459 0,-0.729 0.087,-1.444 0.262,-2.144 h 5.863 c -0.351,0.7 -0.526,1.415 -0.526,2.144 0,1.371 0.481,2.545 1.444,3.521 0.963,0.978 2.129,1.466 3.5,1.466 h 1.138 c 1.371,0 2.544,-0.488 3.522,-1.466 0.976,-0.976 1.465,-2.144 1.465,-3.5 0,-1.356 -0.489,-2.522 -1.465,-3.5 C 52.881,4.645 51.708,4.156 50.337,4.156 H 43.1 12.509 5.271 c -1.37,0 -2.544,0.489 -3.521,1.465 -0.977,0.978 -1.466,2.144 -1.466,3.5 0,1.356 0.489,2.524 1.466,3.5 0.977,0.978 2.151,1.466 3.521,1.466 h 1.138 c 1.371,0 2.538,-0.488 3.501,-1.466 0.962,-0.976 1.443,-2.15 1.443,-3.521 0,-0.729 -0.174,-1.444 -0.525,-2.144 h 5.862 c 0.175,0.7 0.262,1.415 0.262,2.144 0,2.916 -1.034,5.403 -3.106,7.459 -2.07,2.056 -4.549,3.084 -7.437,3.084 H 5.271 c -2.887,0 -5.365,-1.028 -7.436,-3.084 C -4.236,14.503 -5.272,12.016 -5.272,9.1 -5.272,7.204 -4.797,5.447 -3.85,3.828 -2.902,2.209 -1.619,0.934 0,0"
           style="fill:#fde6c3;fill-opacity:1;fill-rule:nonzero;stroke:none"
           transform="matrix(1.3333333,0,0,-1.3333333,43.462267,91.927333)"
           clip-path="url(#clipPath35)" />
        <path
           id="path36"
           d="m 0,0 c 0,1.241 0.442,2.304 1.327,3.189 0.885,0.884 1.942,1.327 3.17,1.327 1.228,0 2.284,-0.443 3.17,-1.327 C 8.551,2.304 8.994,1.241 8.994,0 v -1.03 c 0,-1.242 -0.443,-2.299 -1.327,-3.171 -0.886,-0.871 -1.942,-1.307 -3.17,-1.307 -1.228,0 -2.285,0.436 -3.17,1.307 C 0.442,-3.329 0,-2.272 0,-1.03 Z m 4.497,-10.579 c 2.628,0 4.873,0.937 6.735,2.813 1.863,1.875 2.794,4.12 2.794,6.736 V 0 c 0,2.614 -0.931,4.859 -2.794,6.735 C 9.37,8.61 7.125,9.548 4.497,9.548 1.868,9.548 -0.377,8.61 -2.238,6.735 -4.101,4.859 -5.032,2.614 -5.032,0 v -1.03 c 0,-2.616 0.931,-4.861 2.794,-6.736 1.861,-1.876 4.106,-2.813 6.735,-2.813"
           style="fill:#fde6c3;fill-opacity:1;fill-rule:nonzero;stroke:none"
           transform="matrix(1.3333333,0,0,-1.3333333,74.538667,57.422)"
           clip-path="url(#clipPath37)" />
        <path
           id="path38"
           d="m 0,0 c 0,-1.242 -0.443,-2.298 -1.327,-3.17 -0.886,-0.872 -1.942,-1.308 -3.17,-1.308 -1.228,0 -2.285,0.436 -3.17,1.308 -0.885,0.872 -1.327,1.928 -1.327,3.17 v 1.03 c 0,1.242 0.442,2.304 1.327,3.189 0.885,0.885 1.942,1.328 3.17,1.328 1.228,0 2.284,-0.443 3.17,-1.328 C -0.443,3.334 0,2.272 0,1.03 Z m -4.497,10.579 c -2.629,0 -4.874,-0.939 -6.735,-2.814 -1.863,-1.875 -2.794,-4.12 -2.794,-6.735 V 0 c 0,-2.615 0.931,-4.86 2.794,-6.735 1.861,-1.877 4.106,-2.813 6.735,-2.813 2.628,0 4.873,0.936 6.735,2.813 1.863,1.875 2.794,4.12 2.794,6.735 v 1.03 c 0,2.615 -0.931,4.86 -2.794,6.735 -1.862,1.875 -4.107,2.814 -6.735,2.814"
           style="fill:#fde6c3;fill-opacity:1;fill-rule:nonzero;stroke:none"
           transform="matrix(1.3333333,0,0,-1.3333333,86.530667,131.51973)"
           clip-path="url(#clipPath39)" />
      </g>
    </g>
  </g>
</svg>
